<?xml version="1.0" encoding="UTF-8" standalone="no"?>
<!DOCTYPE svg PUBLIC "-//W3C//DTD SVG 1.1//EN" "http://www.w3.org/Graphics/SVG/1.1/DTD/svg11.dtd">
<svg width="100%" height="100%" viewBox="0 0 800 800" version="1.1" xmlns="http://www.w3.org/2000/svg" xmlns:xlink="http://www.w3.org/1999/xlink" xml:space="preserve" style="fill-rule:evenodd;clip-rule:evenodd;stroke-linejoin:round;stroke-miterlimit:1.41421;">
    <g transform="matrix(1.31797,0,0,1.29559,-188.871,-176.287)">
        <path d="M750.302,284.03C750.302,202.367 685.127,136.068 604.851,136.068L288.755,136.068C208.479,136.068 143.305,202.367 143.305,284.03L143.305,605.586C143.305,687.249 208.479,753.549 288.755,753.549L604.851,753.549C685.127,753.549 750.302,687.249 750.302,605.586L750.302,284.03Z" style="fill:url(#_Radial1);"/>
    </g>
    <g id="电路">
        <g transform="matrix(0.493452,0,0,1.11021,261.745,178.906)">
            <rect x="138.48" y="66.659" width="20.265" height="240.29" style="fill:rgb(116,191,238);"/>
        </g>
        <g transform="matrix(0.493452,0,0,0.938193,211.296,-62.5386)">
            <rect x="138.48" y="66.659" width="20.265" height="240.29" style="fill:rgb(116,191,238);"/>
        </g>
        <g transform="matrix(0.493452,0,0,0.333367,211.296,240.112)">
            <rect x="138.48" y="66.659" width="20.265" height="240.29" style="fill:rgb(116,191,238);"/>
        </g>
        <g transform="matrix(0.493452,0,0,0.742595,155.048,210.215)">
            <rect x="138.48" y="66.659" width="20.265" height="240.29" style="fill:rgb(116,191,238);"/>
        </g>
        <g transform="matrix(0.493452,0,0,1.16084,442.749,84.7922)">
            <rect x="138.48" y="66.659" width="20.265" height="240.29" style="fill:rgb(116,191,238);"/>
        </g>
        <g transform="matrix(0.493452,0,0,0.698898,34.9815,122.085)">
            <rect x="138.48" y="66.659" width="20.265" height="240.29" style="fill:rgb(116,191,238);"/>
        </g>
        <g transform="matrix(0.493452,0,0,0.81369,5.9815,403.711)">
            <rect x="138.48" y="66.659" width="20.265" height="240.29" style="fill:rgb(116,191,238);"/>
        </g>
        <g transform="matrix(0.493452,0,0,0.58584,527.981,-39.0513)">
            <rect x="138.48" y="66.659" width="20.265" height="240.29" style="fill:rgb(116,191,238);"/>
        </g>
        <g transform="matrix(0.493452,0,0,0.444344,108.981,433.381)">
            <rect x="138.48" y="66.659" width="20.265" height="240.29" style="fill:rgb(116,191,238);"/>
        </g>
        <g transform="matrix(0.536212,0,0,0.465846,30.0602,-14.7669)">
            <path d="M157.091,65.868L157.129,306.948L138.48,306.948L138.96,109.339L138.939,99.844L138.897,82.102L157.091,65.868Z" style="fill:rgb(116,191,238);"/>
        </g>
        <g transform="matrix(0.493452,0,0,0.930216,204.082,338.249)">
            <rect x="138.48" y="66.659" width="20.265" height="240.29" style="fill:rgb(116,191,238);"/>
        </g>
        <g transform="matrix(0.493452,0,0,0.347239,484.415,610.192)">
            <rect x="138.48" y="66.659" width="20.265" height="240.29" style="fill:rgb(116,191,238);"/>
        </g>
        <g transform="matrix(0.493452,0,0,0.765484,138.082,565.036)">
            <rect x="138.48" y="66.659" width="20.265" height="240.29" style="fill:rgb(116,191,238);"/>
        </g>
        <g transform="matrix(0.493452,0,0,0.869872,617.082,187.104)">
            <rect x="138.48" y="66.659" width="20.265" height="240.29" style="fill:rgb(116,191,238);"/>
        </g>
        <g transform="matrix(0.535714,0,0,1.20801,612.224,405.815)">
            <path d="M157.129,308.19L157.129,66.659L138.48,66.659L138.462,314.387L157.129,308.19Z" style="fill:rgb(116,191,238);"/>
        </g>
        <g transform="matrix(0.493452,0,0,1.93699,358.467,205.445)">
            <rect x="138.48" y="66.659" width="20.265" height="240.29" style="fill:rgb(116,191,238);"/>
        </g>
        <g transform="matrix(0.493452,0,0,0.638554,294.136,58.1116)">
            <rect x="138.48" y="66.659" width="20.265" height="240.29" style="fill:rgb(116,191,238);"/>
        </g>
        <g transform="matrix(0.493452,0,0,0.149561,294.136,-9.96951)">
            <rect x="138.48" y="66.659" width="20.265" height="240.29" style="fill:rgb(116,191,238);"/>
        </g>
        <g transform="matrix(0.493452,0,0,0.110025,222.136,766.228)">
            <rect x="138.48" y="66.659" width="20.265" height="240.29" style="fill:rgb(116,191,238);"/>
        </g>
        <g transform="matrix(0.493452,0,0,1.21494,358.467,-80.9864)">
            <rect x="138.48" y="66.659" width="20.265" height="240.29" style="fill:rgb(116,191,238);"/>
        </g>
        <g transform="matrix(3.06276e-17,-0.493452,0.230278,1.41784e-17,273.336,153.858)">
            <rect x="138.48" y="66.659" width="20.265" height="240.29" style="fill:rgb(116,191,238);"/>
        </g>
        <g transform="matrix(3.06276e-17,-0.493452,0.301719,1.85771e-17,316.407,392.404)">
            <rect x="138.48" y="66.659" width="20.265" height="240.29" style="fill:rgb(116,191,238);"/>
        </g>
        <g transform="matrix(3.06276e-17,-0.493452,0.317672,1.95593e-17,332.177,616.07)">
            <rect x="138.48" y="66.659" width="20.265" height="240.29" style="fill:rgb(116,191,238);"/>
        </g>
        <g transform="matrix(3.06276e-17,-0.493452,1.05567,6.49984e-17,365.649,323.404)">
            <rect x="138.48" y="66.659" width="20.265" height="240.29" style="fill:rgb(116,191,238);"/>
        </g>
        <g transform="matrix(3.06276e-17,-0.493452,0.728288,4.48412e-17,387.472,433.404)">
            <rect x="138.48" y="66.659" width="20.265" height="240.29" style="fill:rgb(116,191,238);"/>
        </g>
        <g transform="matrix(3.06276e-17,-0.493452,0.571533,3.51897e-17,514.588,786.07)">
            <rect x="138.48" y="66.659" width="20.265" height="240.29" style="fill:rgb(116,191,238);"/>
        </g>
        <g transform="matrix(3.06276e-17,-0.493452,0.486219,2.99368e-17,281.775,835.07)">
            <rect x="138.48" y="66.659" width="20.265" height="240.29" style="fill:rgb(116,191,238);"/>
        </g>
        <g transform="matrix(3.06276e-17,-0.493452,0.461249,2.83994e-17,65.4394,747.737)">
            <rect x="138.48" y="66.659" width="20.265" height="240.29" style="fill:rgb(116,191,238);"/>
        </g>
        <g transform="matrix(3.06276e-17,-0.493452,0.375935,2.31466e-17,574.626,636.737)">
            <rect x="138.48" y="66.659" width="20.265" height="240.29" style="fill:rgb(116,191,238);"/>
        </g>
        <g transform="matrix(3.06276e-17,-0.493452,1.37542,8.46858e-17,114.835,694.07)">
            <rect x="138.48" y="66.659" width="20.265" height="240.29" style="fill:rgb(116,191,238);"/>
        </g>
        <g transform="matrix(3.06276e-17,-0.493452,0.639506,3.93748e-17,603.39,433.404)">
            <rect x="138.48" y="66.659" width="20.265" height="240.29" style="fill:rgb(116,191,238);"/>
        </g>
        <g transform="matrix(3.06276e-17,-0.493452,0.37871,2.33174e-17,683.775,542.404)">
            <rect x="138.48" y="66.659" width="20.265" height="240.29" style="fill:rgb(116,191,238);"/>
        </g>
        <g transform="matrix(5.28972e-17,-0.857143,1.05398,6.5157e-17,468.262,275.468)">
            <path d="M158.745,66.659L147.079,66.659L145.912,310.364L157.579,307.897L158.745,66.659" style="fill:rgb(116,191,238);"/>
        </g>
        <g transform="matrix(3.06276e-17,-0.493452,0.245884,1.51392e-17,256.212,477.737)">
            <rect x="138.48" y="66.659" width="20.265" height="240.29" style="fill:rgb(116,191,238);"/>
        </g>
        <g transform="matrix(3.06276e-17,-0.493452,1.20445,7.41588e-17,-80.287,411.07)">
            <rect x="138.48" y="66.659" width="20.265" height="240.29" style="fill:rgb(116,191,238);"/>
        </g>
        <g transform="matrix(3.06276e-17,-0.493452,0.6728,4.14247e-17,78.6521,223.07)">
            <rect x="138.48" y="66.659" width="20.265" height="240.29" style="fill:rgb(116,191,238);"/>
        </g>
        <g transform="matrix(3.06276e-17,-0.493452,0.559395,3.44423e-17,37.2115,536.07)">
            <rect x="138.48" y="66.659" width="20.265" height="240.29" style="fill:rgb(116,191,238);"/>
        </g>
        <g transform="matrix(3.06276e-17,-0.493452,0.456741,2.81218e-17,-30.4457,288.07)">
            <rect x="138.48" y="66.659" width="20.265" height="240.29" style="fill:rgb(116,191,238);"/>
        </g>
        <g transform="matrix(3.06276e-17,-0.493452,0.511883,3.1517e-17,74.1286,338.07)">
            <rect x="138.48" y="66.659" width="20.265" height="240.29" style="fill:rgb(116,191,238);"/>
        </g>
        <g transform="matrix(3.06276e-17,-0.493452,0.502172,3.09191e-17,214.626,537.033)">
            <rect x="138.48" y="66.659" width="20.265" height="240.29" style="fill:rgb(116,191,238);"/>
        </g>
        <g transform="matrix(3.06276e-17,-0.493452,0.399518,2.45986e-17,375.135,537.033)">
            <rect x="138.48" y="66.659" width="20.265" height="240.29" style="fill:rgb(116,191,238);"/>
        </g>
        <g transform="matrix(3.06276e-17,-0.493452,0.232012,1.42851e-17,294.034,322.433)">
            <rect x="138.48" y="66.659" width="20.265" height="240.29" style="fill:rgb(116,191,238);"/>
        </g>
        <g transform="matrix(3.06276e-17,-0.493452,0.281952,1.73599e-17,343.755,104.233)">
            <rect x="138.48" y="66.659" width="20.265" height="240.29" style="fill:rgb(116,191,238);"/>
        </g>
        <g transform="matrix(0.996394,0,0,1.01593,125.61,-82.3284)">
            <path d="M103.739,509.216C117.587,509.216 128.83,520.242 128.83,533.824C128.83,547.405 117.587,558.432 103.739,558.432C89.892,558.432 78.649,547.405 78.649,533.824C78.649,520.242 89.892,509.216 103.739,509.216ZM103.739,521.52C110.663,521.52 116.285,527.033 116.285,533.824C116.285,540.615 110.663,546.128 103.739,546.128C96.816,546.128 91.194,540.615 91.194,533.824C91.194,527.033 96.816,521.52 103.739,521.52Z" style="fill:rgb(116,191,238);"/>
        </g>
        <g transform="matrix(0.996394,0,0,1.01593,-24.3895,127.005)">
            <path d="M103.739,509.216C117.587,509.216 128.83,520.242 128.83,533.824C128.83,547.405 117.587,558.432 103.739,558.432C89.892,558.432 78.649,547.405 78.649,533.824C78.649,520.242 89.892,509.216 103.739,509.216ZM103.739,521.52C110.663,521.52 116.285,527.033 116.285,533.824C116.285,540.615 110.663,546.128 103.739,546.128C96.816,546.128 91.194,540.615 91.194,533.824C91.194,527.033 96.816,521.52 103.739,521.52Z" style="fill:rgb(116,191,238);"/>
        </g>
        <g transform="matrix(0.996394,0,0,1.01593,192.61,213.672)">
            <path d="M103.739,509.216C117.587,509.216 128.83,520.242 128.83,533.824C128.83,547.405 117.587,558.432 103.739,558.432C89.892,558.432 78.649,547.405 78.649,533.824C78.649,520.242 89.892,509.216 103.739,509.216ZM103.739,521.52C110.663,521.52 116.285,527.033 116.285,533.824C116.285,540.615 110.663,546.128 103.739,546.128C96.816,546.128 91.194,540.615 91.194,533.824C91.194,527.033 96.816,521.52 103.739,521.52Z" style="fill:rgb(116,191,238);"/>
        </g>
        <g transform="matrix(0.996394,0,0,1.01593,264.11,-464.957)">
            <path d="M103.739,509.216C117.587,509.216 128.83,520.242 128.83,533.824C128.83,547.405 117.587,558.432 103.739,558.432C89.892,558.432 78.649,547.405 78.649,533.824C78.649,520.242 89.892,509.216 103.739,509.216ZM103.739,521.52C110.663,521.52 116.285,527.033 116.285,533.824C116.285,540.615 110.663,546.128 103.739,546.128C96.816,546.128 91.194,540.615 91.194,533.824C91.194,527.033 96.816,521.52 103.739,521.52Z" style="fill:rgb(116,191,238);"/>
        </g>
        <g transform="matrix(0.996394,0,0,1.01593,328.61,-226.957)">
            <path d="M103.739,509.216C117.587,509.216 128.83,520.242 128.83,533.824C128.83,547.405 117.587,558.432 103.739,558.432C89.892,558.432 78.649,547.405 78.649,533.824C78.649,520.242 89.892,509.216 103.739,509.216ZM103.739,521.52C110.663,521.52 116.285,527.033 116.285,533.824C116.285,540.615 110.663,546.128 103.739,546.128C96.816,546.128 91.194,540.615 91.194,533.824C91.194,527.033 96.816,521.52 103.739,521.52Z" style="fill:rgb(116,191,238);"/>
        </g>
        <g transform="matrix(0.996394,0,0,1.01593,527.277,-185.623)">
            <path d="M103.739,509.216C117.587,509.216 128.83,520.242 128.83,533.824C128.83,547.405 117.587,558.432 103.739,558.432C89.892,558.432 78.649,547.405 78.649,533.824C78.649,520.242 89.892,509.216 103.739,509.216ZM103.739,521.52C110.663,521.52 116.285,527.033 116.285,533.824C116.285,540.615 110.663,546.128 103.739,546.128C96.816,546.128 91.194,540.615 91.194,533.824C91.194,527.033 96.816,521.52 103.739,521.52Z" style="fill:rgb(116,191,238);"/>
        </g>
        <g transform="matrix(0.996394,0,0,1.01593,454.277,73.3767)">
            <path d="M103.739,509.216C117.587,509.216 128.83,520.242 128.83,533.824C128.83,547.405 117.587,558.432 103.739,558.432C89.892,558.432 78.649,547.405 78.649,533.824C78.649,520.242 89.892,509.216 103.739,509.216ZM103.739,521.52C110.663,521.52 116.285,527.033 116.285,533.824C116.285,540.615 110.663,546.128 103.739,546.128C96.816,546.128 91.194,540.615 91.194,533.824C91.194,527.033 96.816,521.52 103.739,521.52Z" style="fill:rgb(116,191,238);"/>
        </g>
        <g transform="matrix(0.996394,0,0,1.01593,587.535,-72.9566)">
            <path d="M103.739,509.216C117.587,509.216 128.83,520.242 128.83,533.824C128.83,547.405 117.587,558.432 103.739,558.432C89.892,558.432 78.649,547.405 78.649,533.824C78.649,520.242 89.892,509.216 103.739,509.216ZM103.739,521.52C110.663,521.52 116.285,527.033 116.285,533.824C116.285,540.615 110.663,546.128 103.739,546.128C96.816,546.128 91.194,540.615 91.194,533.824C91.194,527.033 96.816,521.52 103.739,521.52Z" style="fill:rgb(116,191,238);"/>
        </g>
        <g transform="matrix(0.996394,0,0,1.01593,413.135,-399.328)">
            <path d="M103.739,509.216C117.587,509.216 128.83,520.242 128.83,533.824C128.83,547.405 117.587,558.432 103.739,558.432C89.892,558.432 78.649,547.405 78.649,533.824C78.649,520.242 89.892,509.216 103.739,509.216ZM103.739,521.52C110.663,521.52 116.285,527.033 116.285,533.824C116.285,540.615 110.663,546.128 103.739,546.128C96.816,546.128 91.194,540.615 91.194,533.824C91.194,527.033 96.816,521.52 103.739,521.52Z" style="fill:rgb(116,191,238);"/>
        </g>
        <g transform="matrix(0.996394,0,0,1.01593,281.944,-82.2899)">
            <path d="M103.739,509.216C117.587,509.216 128.83,520.242 128.83,533.824C128.83,547.405 117.587,558.432 103.739,558.432C89.892,558.432 78.649,547.405 78.649,533.824C78.649,520.242 89.892,509.216 103.739,509.216ZM103.739,521.52C110.663,521.52 116.285,527.033 116.285,533.824C116.285,540.615 110.663,546.128 103.739,546.128C96.816,546.128 91.194,540.615 91.194,533.824C91.194,527.033 96.816,521.52 103.739,521.52Z" style="fill:rgb(116,191,238);"/>
        </g>
        <g transform="matrix(0.996394,0,0,1.01593,231.944,-4.62327)">
            <path d="M103.739,509.216C117.587,509.216 128.83,520.242 128.83,533.824C128.83,547.405 117.587,558.432 103.739,558.432C89.892,558.432 78.649,547.405 78.649,533.824C78.649,520.242 89.892,509.216 103.739,509.216ZM103.739,521.52C110.663,521.52 116.285,527.033 116.285,533.824C116.285,540.615 110.663,546.128 103.739,546.128C96.816,546.128 91.194,540.615 91.194,533.824C91.194,527.033 96.816,521.52 103.739,521.52Z" style="fill:rgb(116,191,238);"/>
        </g>
        <g transform="matrix(0.996394,0,0,1.01593,413.635,-82.2899)">
            <path d="M103.739,509.216C117.587,509.216 128.83,520.242 128.83,533.824C128.83,547.405 117.587,558.432 103.739,558.432C89.892,558.432 78.649,547.405 78.649,533.824C78.649,520.242 89.892,509.216 103.739,509.216ZM103.739,521.52C110.663,521.52 116.285,527.033 116.285,533.824C116.285,540.615 110.663,546.128 103.739,546.128C96.816,546.128 91.194,540.615 91.194,533.824C91.194,527.033 96.816,521.52 103.739,521.52Z" style="fill:rgb(116,191,238);"/>
        </g>
        <g transform="matrix(0.996394,0,0,1.01593,183.11,-297.957)">
            <path d="M103.739,509.216C117.587,509.216 128.83,520.242 128.83,533.824C128.83,547.405 117.587,558.432 103.739,558.432C89.892,558.432 78.649,547.405 78.649,533.824C78.649,520.242 89.892,509.216 103.739,509.216ZM103.739,521.52C110.663,521.52 116.285,527.033 116.285,533.824C116.285,540.615 110.663,546.128 103.739,546.128C96.816,546.128 91.194,540.615 91.194,533.824C91.194,527.033 96.816,521.52 103.739,521.52Z" style="fill:rgb(116,191,238);"/>
        </g>
        <g transform="matrix(0.996394,0,0,1.01593,5.61048,-396.228)">
            <path d="M103.739,509.216C117.587,509.216 128.83,520.242 128.83,533.824C128.83,547.405 117.587,558.432 103.739,558.432C89.892,558.432 78.649,547.405 78.649,533.824C78.649,520.242 89.892,509.216 103.739,509.216ZM103.739,521.52C110.663,521.52 116.285,527.033 116.285,533.824C116.285,540.615 110.663,546.128 103.739,546.128C96.816,546.128 91.194,540.615 91.194,533.824C91.194,527.033 96.816,521.52 103.739,521.52Z" style="fill:rgb(116,191,238);"/>
        </g>
    </g>
    <g id="S">
        <g>
            <g transform="matrix(0.851439,0,0,1,75.745,0.333333)">
                <path d="M278.408,202.654L624.849,202.654L624.849,229.674L278.408,229.674L278.408,209.102L278.408,202.654" style="fill:white;"/>
            </g>
            <g transform="matrix(1.82927,0,0,1.78571,-44.3576,-103.211)">
                <clipPath id="_clip2">
                    <rect x="186.991" y="171.478" width="49.2" height="40.32"/>
                </clipPath>
                <g clip-path="url(#_clip2)">
                    <path d="M211.591,161.398C198.005,161.398 186.991,172.681 186.991,186.598L211.591,186.598L211.591,161.398Z" style="fill:white;"/>
                </g>
            </g>
            <g transform="matrix(-1.82927,0,0,1.78571,843.758,111.689)">
                <clipPath id="_clip3">
                    <rect x="186.991" y="171.478" width="49.2" height="40.32"/>
                </clipPath>
                <g clip-path="url(#_clip3)">
                    <path d="M211.591,161.398C198.005,161.398 186.991,172.681 186.991,186.598L211.591,186.598L211.591,161.398Z" style="fill:white;"/>
                </g>
            </g>
            <g transform="matrix(1.11804e-17,-0.182591,1,6.12323e-17,50.0667,343.412)">
                <rect x="278.408" y="202.654" width="346.441" height="27.021" style="fill:white;"/>
            </g>
            <g transform="matrix(1.30592e-17,-0.213273,1,6.12323e-17,-18.2666,418.909)">
                <rect x="278.408" y="202.654" width="346.441" height="27.021" style="fill:white;"/>
            </g>
            <g transform="matrix(1.15047e-17,-0.187886,0.989426,6.05849e-17,319.254,554.255)">
                <rect x="278.408" y="202.654" width="346.441" height="27.021" style="fill:white;"/>
            </g>
            <g transform="matrix(1.28825e-17,-0.210386,1,6.12323e-17,381.146,638.514)">
                <rect x="278.408" y="202.654" width="346.441" height="27.021" style="fill:white;"/>
            </g>
            <g transform="matrix(0.580418,0,0,1,181.469,-62.6976)">
                <rect x="278.408" y="202.654" width="346.441" height="27.021" style="fill:white;"/>
            </g>
            <g transform="matrix(0.336851,0,0,1,247.965,151.905)">
                <rect x="278.408" y="202.654" width="346.441" height="27.021" style="fill:white;"/>
                <clipPath id="_clip4">
                    <rect x="278.408" y="202.654" width="346.441" height="27.021"/>
                </clipPath>
                <g clip-path="url(#_clip4)">
                    <g transform="matrix(2.96867,0,0,1,-736.127,-151.905)">
                        <path d="M250.906,204.416L251.154,204.436L251.401,204.469L251.647,204.513L251.889,204.57L252.129,204.639L252.365,204.72L252.596,204.812L252.823,204.916L253.044,205.031L253.26,205.157L253.468,205.293L253.67,205.44L253.864,205.596L254.05,205.762L254.227,205.937L254.396,206.121L254.555,206.313L254.705,206.512L254.844,206.719L254.973,206.932L255.091,207.152L255.198,207.377L255.293,207.607L255.377,207.842L255.45,208.081L255.51,208.323L255.558,208.567L255.594,208.814L255.617,209.062L255.628,209.311L255.627,209.561L255.622,209.724L255.596,210.02L255.557,210.294L255.509,210.541L255.455,210.765L255.385,211.014L255.276,211.331L255.149,211.638L255.024,211.902L254.902,212.13L254.785,212.331L254.7,212.467L254.692,212.595L254.671,212.808L254.64,213.037L254.594,213.288L254.53,213.563L254.442,213.861L254.329,214.177L254.182,214.514L253.994,214.87L253.764,215.233L253.626,215.415L253.616,215.428L253.608,215.451L253.536,215.666L253.451,215.919L253.397,216.076L253.337,216.245L253.27,216.427L253.194,216.623L253.113,216.819L253.06,216.942L253.009,217.057L252.954,217.174L252.896,217.296L252.834,217.42L252.767,217.549L252.695,217.681L252.618,217.815L252.613,217.823L252.606,217.966L252.593,218.169L252.576,218.376L252.561,218.513L252.546,218.641L252.527,218.777L252.505,218.919L252.478,219.07L252.447,219.229L252.41,219.395L252.366,219.57L252.314,219.755L252.253,219.95L252.182,220.153L252.1,220.365L252.044,220.495L252.047,220.613L252.053,220.786L252.061,220.97L252.072,221.162L252.084,221.361L252.098,221.564L252.113,221.771L252.129,221.976L252.163,222.396L252.197,222.804L252.23,223.191L252.245,223.384L252.259,223.572L252.272,223.76L252.284,223.954L252.292,224.167L252.296,224.366L252.296,241.075L252.29,241.325L252.271,241.573L252.24,241.821L252.197,242.066L252.141,242.309L252.074,242.549L251.994,242.786L251.903,243.018L251.801,243.245L251.687,243.467L251.562,243.683L251.427,243.892L251.282,244.095L251.126,244.289L250.961,244.476L250.787,244.655L250.604,244.824L250.413,244.985L250.215,245.135L250.009,245.276L249.796,245.406L249.577,245.525L249.352,245.633L249.123,245.73L248.888,245.815L248.65,245.889L248.408,245.95L248.164,246L247.918,246.037L247.67,246.061L247.421,246.074L247.171,246.074L246.922,246.061L246.674,246.037L246.428,246L246.183,245.95L245.942,245.889L245.703,245.815L245.469,245.73L245.239,245.633L245.015,245.525L244.796,245.406L244.583,245.276L244.377,245.135L244.178,244.985L243.987,244.824L243.805,244.655L243.631,244.476L243.466,244.289L243.31,244.095L243.165,243.892L243.029,243.683L242.905,243.467L242.791,243.245L242.688,243.018L242.597,242.786L242.518,242.549L242.45,242.309L242.395,242.066L242.352,241.821L242.321,241.573L242.302,241.325L242.296,241.075L242.296,224.458L242.296,224.451L242.292,224.388L242.285,224.287L242.275,224.159L242.263,224.009L242.233,223.643L242.197,223.224L242.16,222.765L242.141,222.517L242.122,222.265L242.105,222.006L242.089,221.743L242.074,221.474L242.061,221.202L242.051,220.925L242.044,220.654L242.042,220.504L242.041,220.361L242.04,220.217L242.041,220.072L242.044,219.924L242.048,219.774L242.053,219.622L242.061,219.466L242.071,219.307L242.083,219.143L242.099,218.974L242.119,218.798L242.143,218.615L242.173,218.421L242.21,218.214L242.258,217.992L242.317,217.752L242.393,217.489L242.48,217.236L242.552,217.048L242.622,216.881L242.638,216.846L242.643,216.699L242.652,216.518L242.665,216.316L242.683,216.108L242.697,215.971L242.713,215.843L242.731,215.707L242.754,215.565L242.78,215.414L242.812,215.255L242.849,215.089L242.892,214.914L242.944,214.728L243.005,214.535L243.076,214.332L243.159,214.118L243.255,213.898L243.365,213.669L243.493,213.431L243.639,213.189L243.804,212.942L243.982,212.706L243.983,212.7L244.056,212.485L244.14,212.232L244.195,212.075L244.254,211.906L244.322,211.724L244.398,211.528L244.478,211.332L244.532,211.209L244.551,211.166L244.548,211.081L244.552,210.784L244.566,210.556L244.587,210.346L244.618,210.114L244.665,209.86L244.729,209.588L244.815,209.294L244.929,208.974L245.077,208.635L245.264,208.281L245.494,207.918L245.632,207.736L245.772,207.559L245.921,207.388L246.02,207.279L246.187,207.114L246.192,207.104L246.313,206.885L246.444,206.673L246.585,206.468L246.737,206.27L246.898,206.08L247.069,205.898L247.248,205.725L247.436,205.561L247.632,205.407L247.835,205.262L248.045,205.128L248.262,205.005L248.484,204.892L248.712,204.791L248.945,204.701L249.181,204.623L249.422,204.557L249.665,204.503L249.911,204.461L250.158,204.431L250.407,204.414L250.656,204.409L250.906,204.416ZM243.587,215.387L243.584,215.39L243.654,215.316L243.587,215.387ZM245.635,209.13L245.631,209.257L245.644,209.034L245.635,209.13ZM245.658,208.87L245.651,208.956L245.664,208.831L245.658,208.87Z" style="fill:rgb(36,224,226);"/>
                    </g>
                </g>
            </g>
            <g transform="matrix(0.751956,0,0,1,-9.0979,359.384)">
                <path d="M624.849,202.654L279.131,202.654L278.408,229.674L624.849,229.674L624.849,202.654Z" style="fill:white;"/>
            </g>
            <g transform="matrix(0.559609,0,0,1,116.491,215.199)">
                <rect x="278.408" y="202.654" width="346.441" height="27.021" style="fill:white;"/>
            </g>
            <g transform="matrix(0.751344,0,0,1,54.4201,431.363)">
                <rect x="278.408" y="202.654" width="346.441" height="27.021" style="fill:white;"/>
            </g>
        </g>
        <g>
            <g transform="matrix(1.0007,0,0,0.986723,210.622,-268.538)">
                <clipPath id="_clip5">
                    <rect x="-45.531" y="324.336" width="178.528" height="182.388"/>
                </clipPath>
                <g clip-path="url(#_clip5)">
                    <path d="M131.242,413.993C180.509,413.993 220.507,454.856 220.507,505.187C220.507,555.518 180.509,596.381 131.242,596.381C81.976,596.381 41.978,555.518 41.978,505.187C41.978,454.856 81.976,413.993 131.242,413.993ZM131.242,441.727C165.526,441.727 193.359,470.163 193.359,505.187C193.359,540.211 165.526,568.647 131.242,568.647C96.959,568.647 69.126,540.211 69.126,505.187C69.126,470.163 96.959,441.727 131.242,441.727Z" style="fill:white;"/>
                </g>
            </g>
            <g transform="matrix(0.997041,0,0,0.929209,142.546,-181.728)">
                <clipPath id="_clip6">
                    <rect x="-45.531" y="324.336" width="147.938" height="182.388"/>
                </clipPath>
                <g clip-path="url(#_clip6)">
                    <path d="M131.242,413.993C180.509,413.993 220.507,454.856 220.507,505.187C220.507,555.518 180.509,596.381 131.242,596.381C81.976,596.381 41.978,555.518 41.978,505.187C41.978,454.856 81.976,413.993 131.242,413.993ZM131.242,441.727C161.179,441.548 193.359,470.163 193.359,505.187C193.359,540.211 165.526,568.647 131.242,568.647C96.959,568.647 69.126,540.211 69.126,505.187C69.126,470.163 96.96,441.933 131.242,441.727Z" style="fill:white;"/>
                </g>
            </g>
            <g transform="matrix(6.06026e-17,-0.989716,0.975939,5.9759e-17,-151.332,422.838)">
                <clipPath id="_clip7">
                    <rect x="-45.531" y="324.336" width="178.528" height="182.388"/>
                </clipPath>
                <g clip-path="url(#_clip7)">
                    <path d="M131.242,413.993C180.509,413.993 220.507,454.856 220.507,505.187C220.507,555.518 180.509,596.381 131.242,596.381C81.976,596.381 41.978,555.518 41.978,505.187C41.978,454.856 81.976,413.993 131.242,413.993ZM131.242,441.727C165.526,441.727 193.359,470.163 193.359,505.187C193.359,540.211 165.526,568.647 131.242,568.647C96.959,568.647 69.126,540.211 69.126,505.187C69.126,470.163 96.959,441.727 131.242,441.727Z" style="fill:white;"/>
                </g>
            </g>
            <g transform="matrix(6.04905e-17,-0.987885,0.979534,5.99791e-17,-221.02,486.594)">
                <clipPath id="_clip8">
                    <rect x="-45.531" y="324.336" width="178.528" height="182.388"/>
                </clipPath>
                <g clip-path="url(#_clip8)">
                    <path d="M131.242,413.993C180.509,413.993 220.507,454.856 220.507,505.187C220.507,555.518 180.509,596.381 131.242,596.381C81.976,596.381 41.978,555.518 41.978,505.187C41.978,454.856 81.976,413.993 131.242,413.993ZM131.242,441.727C165.526,441.727 193.359,470.163 193.359,505.187C193.359,540.211 165.526,568.647 131.242,568.647C96.959,568.647 69.126,540.211 69.126,505.187C69.126,470.163 96.959,441.727 131.242,441.727Z" style="fill:white;"/>
                </g>
            </g>
            <g transform="matrix(6.06026e-17,0.989716,-0.972345,5.95389e-17,949.207,313.078)">
                <clipPath id="_clip9">
                    <rect x="-45.531" y="324.336" width="178.528" height="182.388"/>
                </clipPath>
                <g clip-path="url(#_clip9)">
                    <path d="M131.242,413.993C180.509,413.993 220.507,454.856 220.507,505.187C220.507,555.518 180.509,596.381 131.242,596.381C81.976,596.381 41.978,555.518 41.978,505.187C41.978,454.856 81.976,413.993 131.242,413.993ZM131.242,441.727C165.526,441.727 193.359,470.163 193.359,505.187C193.359,540.211 165.526,568.647 131.242,568.647C96.959,568.647 69.126,540.211 69.126,505.187C69.126,470.163 96.959,441.727 131.242,441.727Z" style="fill:white;"/>
                </g>
            </g>
            <g transform="matrix(-0.986054,-1.20757e-16,1.19738e-16,-0.977736,587.973,993.901)">
                <clipPath id="_clip10">
                    <rect x="-45.531" y="324.336" width="178.528" height="182.388"/>
                </clipPath>
                <g clip-path="url(#_clip10)">
                    <path d="M131.242,413.993C180.509,413.993 220.507,454.856 220.507,505.187C220.507,555.518 180.509,596.381 131.242,596.381C81.976,596.381 41.978,555.518 41.978,505.187C41.978,454.856 81.976,413.993 131.242,413.993ZM131.242,441.727C165.526,441.727 193.359,470.163 193.359,505.187C193.359,540.211 165.526,568.647 131.242,568.647C96.959,568.647 69.126,540.211 69.126,505.187C69.126,470.163 96.959,441.727 131.242,441.727Z" style="fill:white;"/>
                </g>
            </g>
            <g transform="matrix(-0.986054,-1.20757e-16,1.19738e-16,-0.977736,652.193,1065.9)">
                <clipPath id="_clip11">
                    <rect x="-45.531" y="324.336" width="178.528" height="182.388"/>
                </clipPath>
                <g clip-path="url(#_clip11)">
                    <path d="M131.242,413.993C180.509,413.993 220.507,454.856 220.507,505.187C220.507,555.518 180.509,596.381 131.242,596.381C81.976,596.381 41.978,555.518 41.978,505.187C41.978,454.856 81.976,413.993 131.242,413.993ZM131.242,441.727C165.526,441.727 193.359,470.163 193.359,505.187C193.359,540.211 165.526,568.647 131.242,568.647C96.959,568.647 69.126,540.211 69.126,505.187C69.126,470.163 96.959,441.727 131.242,441.727Z" style="fill:white;"/>
                </g>
            </g>
            <g transform="matrix(6.05466e-17,0.988801,-0.975939,5.9759e-17,1038.36,98.6166)">
                <clipPath id="_clip12">
                    <rect x="-45.531" y="324.336" width="178.528" height="182.388"/>
                </clipPath>
                <g clip-path="url(#_clip12)">
                    <path d="M132.969,441.751C152.57,486.153 220.507,454.856 220.507,505.187C220.507,555.518 180.509,596.381 131.242,596.381C81.976,596.381 41.978,555.518 41.978,505.187C41.978,454.856 112.855,396.186 132.969,441.751ZM132.969,441.751C167.252,441.751 193.359,470.163 193.359,505.187C193.359,540.211 165.526,568.647 131.242,568.647C96.959,568.647 69.126,540.211 69.126,505.187C69.126,470.163 98.686,441.751 132.969,441.751Z" style="fill:white;"/>
                </g>
            </g>
            <g transform="matrix(6.05466e-17,0.988801,-0.975939,5.9759e-17,1015.03,376.617)">
                <clipPath id="_clip13">
                    <rect x="-45.531" y="324.336" width="178.528" height="137.987"/>
                </clipPath>
                <g clip-path="url(#_clip13)">
                    <path d="M131.242,413.993C180.509,413.993 220.507,454.856 220.507,505.187C220.507,555.518 180.509,596.381 131.242,596.381C81.976,596.381 41.978,555.518 41.978,505.187C41.978,454.856 81.976,413.993 131.242,413.993ZM131.242,441.727C165.526,441.727 193.359,470.163 193.359,505.187C193.359,540.211 165.526,568.647 131.242,568.647C96.959,568.647 69.126,540.211 69.126,505.187C69.126,470.163 96.959,441.727 131.242,441.727Z" style="fill:white;"/>
                </g>
            </g>
            <g transform="matrix(3.33679e-16,-1.08988,0.975939,2.98795e-16,-230.089,706.776)">
                <clipPath id="_clip14">
                    <rect x="-45.531" y="324.336" width="178.528" height="182.388"/>
                </clipPath>
                <g clip-path="url(#_clip14)">
                    <path d="M132.969,441.751C152.57,486.153 220.507,454.856 220.507,505.187C220.507,555.518 180.509,596.381 131.242,596.381C81.976,596.381 41.978,555.518 41.978,505.187C41.978,454.856 112.855,396.186 132.969,441.751ZM132.969,441.751C167.252,441.751 193.359,470.163 193.359,505.187C193.359,540.211 165.526,568.647 131.242,568.647C96.959,568.647 66.557,540.826 66.557,505.802C66.557,470.777 98.686,441.751 132.969,441.751Z" style="fill:white;"/>
                </g>
            </g>
        </g>
    </g>
    <g>
        <g transform="matrix(1.99331,-0.137096,0.257695,3.74675,-187.363,-428.4)">
            <clipPath id="_clip15">
                <rect x="186.991" y="176.689" width="49.2" height="35.109"/>
            </clipPath>
            <g clip-path="url(#_clip15)">
                <path d="M213.815,161.501C213.075,161.433 212.334,161.398 211.591,161.398C198.005,161.398 186.991,172.681 186.991,186.598L193.141,186.598C193.141,176.16 201.402,167.698 211.591,167.698C212.148,167.698 212.704,167.724 213.259,167.776L213.815,161.501Z" style="fill:rgb(38,144,235);"/>
            </g>
        </g>
        <g transform="matrix(-1.9834,-0.241248,-0.437077,3.59339,1016.04,-160.908)">
            <clipPath id="_clip16">
                <rect x="186.991" y="176.689" width="49.2" height="35.109"/>
            </clipPath>
            <g clip-path="url(#_clip16)">
                <path d="M213.815,161.501C213.075,161.433 212.334,161.398 211.591,161.398C198.005,161.398 186.991,172.681 186.991,186.598L193.141,186.598C193.141,176.16 201.402,167.698 211.591,167.698C212.148,167.698 212.704,167.724 213.259,167.776L213.815,161.501Z" style="fill:rgb(39,140,236);"/>
            </g>
        </g>
    </g>
    <defs>
        <radialGradient id="_Radial1" cx="0" cy="0" r="1" gradientUnits="userSpaceOnUse" gradientTransform="matrix(303.498,0,0,308.741,446.803,444.808)"><stop offset="0%" style="stop-color:rgb(39,136,237);stop-opacity:1"/><stop offset="53%" style="stop-color:rgb(38,144,235);stop-opacity:1"/><stop offset="100%" style="stop-color:rgb(36,172,226);stop-opacity:1"/><stop offset="100%" style="stop-color:rgb(36,172,226);stop-opacity:1"/></radialGradient>
    </defs>
</svg>
